# xmcd
#
# Track frame offsets: 
#        150
#        15027
#        26070
#        38282
#        57064
#        73645
#        87060
#        99320
#        114627
#        129472
#        142327
#        162070
#        177360
#        195620
#        212087
#
# Disc length: 2986 seconds
#
# Revision: 2
# Processed by: cddbd v1.5.2PL0 Copyright (c) Steve Scherf et al.
# Submitted via: ExactAudioCopy v0.95b2
#
DISCID=bd0ba80f
DTITLE=The Flying Burrito Brothers - Live from Amsterdam 1985
DYEAR=1900
DGENRE=Rock
TTITLE0=Streets of Baltimore
TTITLE1=Cash on the Barrelhead
TTITLE2=Help Is on Its Way
TTITLE3=Star of the Show
TTITLE4=Christine's Tunes (Devil in Disguise)
TTITLE5=Take a City Bride
TTITLE6=Burrito Jam
TTITLE7=Come a Little Closer
TTITLE8=Wheels
TTITLE9=Blues Eyes
TTITLE10=Citizen Kane
TTITLE11=Don't Go Down the Drain
TTITLE12=Mystery Train
TTITLE13=You Ain't Going Nowhere
TTITLE14=Uncle Pen
EXTD=
EXTT0=
EXTT1=
EXTT2=
EXTT3=
EXTT4=
EXTT5=
EXTT6=
EXTT7=
EXTT8=
EXTT9=
EXTT10=
EXTT11=
EXTT12=
EXTT13=
EXTT14=
PLAYORDER=
